<svg width="178" height="28" viewBox="0 0 178 28" fill="none" xmlns="http://www.w3.org/2000/svg">
<path d="M177.838 14.208L172.616 14.1436V17.6625C172.616 22.1996 171.815 25.5381 171.44 26.5177C171.181 26.8013 170.613 26.9688 170.264 26.8657C170.044 26.0665 169.591 23.5917 169.591 19.5057V3.6385C169.591 2.96823 167.717 1.60192 167.019 1.3828C166.825 1.31835 167.433 0.622309 167.627 0.622309C169.061 0.622309 172.81 1.47303 172.719 2.14329C172.655 2.58154 172.629 3.12291 172.629 3.70294V12.7773L176.571 11.2176C176.92 11.0887 178.484 14.1951 177.851 14.1951M167.019 15.9224C167.562 16.6829 166.102 19.9182 165.559 19.1577C164.796 18.0749 162.702 14.9041 160.815 12.7773C158.295 16.2704 155.18 19.0932 152.388 20.5884C152.039 20.5627 151.625 20.0471 151.625 19.7377C155.089 16.6571 159.006 11.2692 160.66 6.34533C160.751 6.06175 159.574 5.19815 159.07 4.88879C158.915 4.79857 159.613 4.2572 159.807 4.2572C160.764 4.2572 163.374 5.33993 164.008 5.77818C164.357 6.03598 164.396 6.19065 164.227 6.60312C163.53 8.40768 162.599 10.122 161.552 11.7074C163.904 13.3315 166.515 15.2005 167.019 15.9224ZM150.152 14.5045L144.904 14.4143V17.6883C144.904 22.2254 144.168 25.5638 143.754 26.5435C143.495 26.827 142.927 26.9946 142.604 26.8915C142.345 26.0923 141.932 23.6175 141.932 19.5315V3.66427C141.932 2.99401 140.057 1.69215 139.359 1.40858C139.204 1.34413 139.773 0.648088 139.967 0.648088C141.402 0.648088 145.059 1.49881 144.995 2.16907C144.969 2.60732 144.904 3.14869 144.904 3.72872V13.0866L148.885 11.5656C149.273 11.411 150.824 14.5174 150.165 14.5174M133.091 16.0513C134.551 16.0513 135.637 15.033 135.637 13.4862C135.637 11.9395 134.616 10.8825 133.091 10.8825C131.566 10.8825 130.544 11.9266 130.544 13.4862C130.544 15.0459 131.566 16.0513 133.091 16.0513ZM128.127 2.82644C128.089 2.69755 128.257 2.2593 128.451 2.28508C129.497 2.47842 130.557 2.67177 131.889 2.82644L135.133 3.17447C135.417 3.20025 136.658 4.91457 135.831 4.91457H130.932C130.105 4.91457 128.192 3.11002 128.127 2.81355M124.883 6.69335C124.857 6.60312 125.038 6.2551 125.142 6.28088C125.685 6.47423 127.623 6.53867 129.472 6.50001L136.089 6.43556C138.002 6.40978 138.571 5.45594 138.855 5.45594C139.178 5.45594 140.38 7.1316 140.38 7.90498C140.38 8.03388 140.251 8.1241 140.032 8.1241C139.708 8.1241 137.873 8.03388 136.4 8.03388L129.265 8.05966C128.115 8.05966 127.352 8.31745 127.003 8.6268C126.111 8.36901 125 7.04137 124.87 6.69335M140.704 19.6733C137.834 20.9751 132.367 21.7356 128.606 22.2125C127.585 22.3414 126.977 22.5348 126.383 22.8828C125.426 22.625 124.03 21.2329 123.901 20.6915C123.927 20.5369 124.056 20.3693 124.159 20.2791C125.206 20.2791 126.731 20.3049 128.58 20.2146C129.73 20.1502 130.803 20.0857 131.798 19.9955L131.604 17.2629C129.187 16.8504 127.688 15.4197 127.688 13.4604C127.688 11.3079 129.562 9.83843 132.522 9.68376C132.548 9.55486 132.587 9.46463 132.587 9.33574C132.587 9.07794 132.522 8.79437 132.173 8.53658C132.173 7.93076 134.086 8.53658 134.086 8.85882C134.086 8.98771 133.931 9.36151 133.827 9.68376C136.723 9.8771 138.532 11.3336 138.532 13.4604C138.532 15.4326 136.968 16.8633 134.59 17.2629L134.461 19.7377C137.485 19.3897 139.515 18.9128 140.885 18.4616C141.169 18.3714 141.04 19.5057 140.691 19.6733M104.526 4.21853L104.5 9.51619H111.919L112.113 4.21853H104.539H104.526ZM99.7178 3.04557C99.692 2.89089 100.131 2.34953 100.351 2.34953C100.894 2.34953 102.807 2.41397 104.048 2.6331H111.118C112.01 2.6331 112.488 2.5042 112.837 2.19485C113.225 2.06595 115.706 2.45264 115.642 2.86511L114.595 9.24551C115.047 9.65798 115.642 10.4829 115.642 10.9341C115.642 11.063 115.512 11.1532 115.293 11.1532C114.97 11.1532 113.793 11.1145 112.01 11.1145H104.177C103.983 11.4625 103.738 11.7848 103.44 12.0941C103.156 12.3777 102.639 12.5066 102.264 12.4164C101.941 11.6559 101.695 10.1993 101.463 7.55696L101.178 4.2572C101.153 3.93496 100.261 3.23891 99.7178 3.04557ZM117.348 25.5767C117.348 25.7056 117.257 25.7959 116.999 25.7959H113.716L103.983 25.8216C101.282 25.8216 100.739 24.9065 100.739 23.089V20.3951C100.739 19.9182 99.7178 19.0932 99.1491 19.003C98.9553 18.9772 99.5886 18.1781 99.8471 18.1781C100.959 18.1781 102.613 18.4359 103.44 18.7452C103.595 18.8097 103.854 18.8999 103.789 19.2479C103.725 19.6604 103.725 20.2662 103.725 20.7689V23.1148C103.725 24.0944 104.074 24.2233 104.94 24.2233L113.121 24.1975C114.84 24.1975 115.409 23.2437 115.642 23.2437C116.081 23.2437 117.361 24.8291 117.361 25.5638M120.424 15.2908C120.424 15.4454 120.295 15.5486 120.075 15.5486H109.993V17.3918C109.993 19.2608 109.295 20.8849 108.817 21.6067C108.559 21.8903 108.016 22.0192 107.667 21.929C107.382 21.0782 106.969 19.9311 106.969 17.83V15.5486H100.196C99.0457 15.5486 98.2832 15.8708 97.9342 16.1802C97.0423 15.9224 95.2328 14.5303 95.2328 14.208C95.2328 14.0791 95.3879 13.7311 95.4913 13.7698C96.0342 13.9631 97.973 13.9889 99.8213 13.9889L115.409 13.9631C117.387 13.9631 118.046 12.8546 118.304 12.8546C118.653 12.8546 120.437 14.5432 120.437 15.3037M76.013 7.2605C76.013 9.29707 77.3443 10.6505 79.3477 10.6505C81.3512 10.6505 82.8763 9.28418 82.8763 7.2605C82.8763 5.23681 81.4416 3.85762 79.3736 3.85762C77.3056 3.85762 76.0001 5.22393 76.0001 7.2605M72.9886 7.36361C72.9886 4.51499 75.2763 2.60732 78.8178 2.41397C78.8437 2.32375 78.8824 2.22063 78.8824 2.1304C78.8824 1.84683 78.8178 1.52459 78.4042 1.24101C78.4042 0.609419 80.5369 1.24101 80.5369 1.58903C80.5369 1.71793 80.3818 2.09173 80.2784 2.41397C83.6518 2.67177 85.875 4.56655 85.875 7.36361C85.875 10.3154 83.3029 12.2488 79.4511 12.2488C75.5994 12.2488 72.9886 10.3154 72.9886 7.36361ZM92.0144 16.0255C92.0144 16.1544 91.8852 16.2446 91.6655 16.2446H84.7634V17.7656C84.7634 22.045 84.0008 25.3834 83.5872 26.363C83.3287 26.6466 82.76 26.7755 82.4369 26.711C82.1784 25.9119 81.7389 23.4499 81.7389 19.6088V16.2446L76.8661 16.2704V17.2242C76.8661 21.4778 76.1035 24.8034 75.7158 25.7959C75.4573 26.0794 74.8886 26.2083 74.5396 26.1439C74.3198 25.3447 73.8675 22.8828 73.8675 19.0674V16.2704H71.7607C70.6103 16.2704 69.8477 16.5926 69.4987 16.902C68.6069 16.6442 66.7974 15.2521 66.7974 14.9041C66.7974 14.8139 66.9525 14.4658 67.0559 14.4916C67.5987 14.685 69.5375 14.7107 71.3858 14.7107L86.9736 14.6463C88.9512 14.6463 89.6103 13.5378 89.8689 13.5378C90.2178 13.5378 92.0015 15.2521 92.0015 16.0126M47.8491 5.99731C47.8491 7.73741 49.1545 8.98771 51.1321 8.98771C53.1096 8.98771 54.4151 7.7503 54.4151 5.99731C54.4151 4.24431 53.1096 3.07135 51.1321 3.07135C49.1545 3.07135 47.8491 4.28298 47.8491 5.99731ZM44.8246 6.1262C44.8246 3.61271 47.0218 1.80816 50.4212 1.58903C50.447 1.43436 50.5117 1.30546 50.5117 1.15079C50.5117 0.867212 50.4212 0.583639 50.0334 0.287177C50.0334 -0.383087 52.1661 0.287177 52.1661 0.609419C52.1661 0.802764 51.9463 1.24101 51.8171 1.58903C55.1906 1.80816 57.4525 3.6256 57.4525 6.1262C57.4525 8.7557 54.8804 10.6376 51.1191 10.6376C47.3579 10.6376 44.8246 8.76859 44.8246 6.1262ZM59.9083 26.0794C59.9083 26.2341 59.779 26.2986 59.5593 26.2986H47.1769C45.0443 26.2986 44.3076 25.5639 44.2429 23.914L44.1783 21.7872C44.1783 21.4649 43.3511 21.0525 42.8082 20.8333C42.7824 20.6787 43.2606 20.1373 43.5062 20.1373C44.1137 20.1373 46.3756 20.2662 47.2028 20.5498H55.2552L55.281 17.9847H47.2286C46.2463 17.9847 45.6001 18.2425 45.2511 18.5519C44.1008 18.3972 43.1831 16.902 43.1443 16.6829C43.1184 16.5282 43.2735 16.2059 43.4286 16.2446C44.4497 16.438 45.7164 16.438 47.5647 16.438H54.1566C55.0484 16.438 55.5266 16.3477 55.8756 15.9868C56.2634 15.961 58.8096 16.2446 58.7062 16.6571L57.9049 20.3951C58.5123 20.8333 58.8872 21.6067 58.8872 21.7872C58.8872 21.9418 58.7967 22.0707 58.6287 22.0707C58.3443 22.0707 56.5348 22.0321 55.0613 22.0321H47.164V23.4242C47.164 24.5069 47.4872 24.726 48.9089 24.726H55.8756C57.8532 24.726 58.1375 23.9011 58.3572 23.9011C58.7967 23.9011 59.8566 25.3963 59.8566 26.0537M63.5402 13.7956C63.5402 13.9245 63.411 14.0147 63.1913 14.0147H58.7062L43.3382 14.0534C42.2266 14.0534 41.464 14.3756 41.115 14.6592C40.1973 14.4014 38.5429 13.0351 38.4137 12.6871C38.3878 12.5968 38.5688 12.2359 38.6722 12.2746C39.215 12.4679 41.1538 12.4937 43.0021 12.4937L58.564 12.4293C60.5028 12.4293 61.1749 11.3207 61.4593 11.3207C61.8083 11.3207 63.5661 13.0351 63.5661 13.7956M28.4096 13.7311C28.4096 14.0147 28.1898 14.0147 27.4273 14.2338C27.1041 14.324 26.949 14.8396 26.6905 15.6259C26.1477 17.3016 24.4028 20.0084 20.7708 20.0084C17.1388 20.0084 15.2388 16.9278 15.1095 16.7731C14.9157 16.5153 14.6313 16.2962 14.3728 16.2962C14.2177 16.2962 14.0885 16.3606 13.998 16.4251C12.6925 17.3144 11.2578 18.3327 11.2578 20.64C11.2578 22.161 12.5245 23.914 14.6959 23.914C16.5442 23.914 17.7463 22.1739 18.134 20.9622C18.2633 20.5498 18.2245 20.3951 18.4572 20.3951C18.7415 20.3951 18.8449 21.0267 19.2198 21.0267C19.5429 21.0267 19.4395 20.872 19.8531 20.872C20.2408 20.872 20.3313 21.3747 20.6545 21.3747C21.1068 21.3747 21.7014 20.988 21.9858 20.988C22.0762 20.988 22.2443 20.988 22.2443 21.0782C22.2443 21.2329 21.9599 21.4005 21.7014 21.6196C21.1585 22.0965 20.7449 22.3801 20.3313 23.0761C18.8708 25.551 17.1776 26.0021 16.3245 26.247C16.0014 26.3372 15.6912 26.5048 15.5619 26.7884C15.0837 27.8711 14.7993 28 14.6701 28C14.515 28 14.4504 27.8067 14.4116 27.3942C14.3728 26.9559 14.1272 26.4403 13.2612 26.2857C11.064 25.8732 8.3626 23.6562 8.3626 20.1631C8.3626 17.018 10.7538 15.7806 11.9558 14.5818C12.1109 14.4272 12.2402 14.2338 12.2402 13.9502V13.86C12.2402 13.7053 12.2014 13.512 12.0204 13.2542C10.8055 11.7332 9.88777 10.7149 8.23335 10.7149C6.42382 10.7149 4.83402 12.2101 4.83402 14.3627C4.83402 16.6829 5.98436 17.4691 7.12178 17.7656C7.49661 17.8558 7.62586 17.8945 7.62586 18.0234C7.62586 18.2812 7.36736 18.2167 7.36736 18.5905C7.36736 18.8741 7.58709 18.8483 7.58709 19.2866C7.58709 19.6088 7.30273 19.699 7.30273 20.176C7.30273 20.5626 7.49661 20.6787 7.49661 20.9107C7.49661 21.1942 7.65171 21.1685 7.65171 21.7614C7.65171 21.9161 7.71634 22.045 7.58709 22.045C7.45784 22.045 7.30273 21.8258 7.10886 21.5423C6.65647 20.872 6.19117 20.4595 5.82926 20.2146C3.06327 18.2167 2.95987 17.3273 2.26191 15.961C2.10681 15.6388 2.04218 15.1103 1.71905 14.9427C0.69796 14.4401 0 14.2725 0 13.4475C0 13.0609 0.452382 13.4475 1.15034 13.4475C1.5381 13.4475 1.97755 13.512 2.19728 12.7128C2.67551 11.0243 4.67892 8.33034 8.18165 8.33034C11.9041 8.33034 13.7524 11.411 13.8817 11.5656C14.1402 11.9137 14.3599 12.0426 14.6184 12.0426C14.7735 12.0426 14.9027 12.0426 15.1871 11.7848C17.5395 9.68376 17.7334 8.76859 17.7334 7.56985C17.7334 6.04887 16.5184 4.27009 14.3599 4.27009C12.2014 4.27009 11.1803 5.98442 10.8959 7.24761C10.8055 7.66008 10.7408 7.8792 10.547 7.8792C10.2626 7.8792 10.2626 7.49251 9.93947 7.49251C9.43539 7.49251 9.37076 7.71164 9.11226 7.71164C8.76328 7.71164 8.76328 7.08004 8.24627 7.08004C8.11702 7.08004 7.83267 7.23472 7.63879 7.23472C7.16056 7.23472 7.1347 7.32494 6.90205 7.32494C6.64355 7.32494 6.39797 7.19605 6.39797 7.0027C6.39797 6.80936 6.55307 6.68046 7.07008 6.43556C7.74219 6.08753 8.34967 5.82974 8.65988 5.1337C9.64219 2.94245 11.8136 2.24641 12.6408 1.92417C12.964 1.79527 13.1191 1.66637 13.2742 1.3828C13.9463 0.17117 14.2306 0.0551624 14.4245 0.0551624C14.6184 0.0551624 14.5796 0.377404 14.683 0.751205C14.7735 1.18945 14.7735 1.55037 15.5102 1.73082C17.5783 2.27219 20.6286 4.17986 20.6286 7.66008C20.6286 11.1403 17.1905 13.3444 17.0354 13.4733C16.6476 13.7569 16.5313 13.976 16.5313 14.208C16.5313 14.3627 16.6218 14.5561 16.7252 14.7494C17.5524 16.3993 18.9871 17.482 20.6415 17.482C22.6191 17.482 24.1443 15.6388 24.1443 13.744C24.1443 11.8492 22.8776 10.702 21.7531 10.354C21.3395 10.2251 21.1456 10.2251 21.1456 10.006C21.1456 9.7482 21.43 9.85132 21.43 9.46463C21.43 9.18106 21.3007 9.24551 21.3007 8.79437C21.3007 8.47213 21.6885 8.3819 21.6885 7.90498C21.6885 7.51829 21.4946 7.40228 21.4946 7.17027C21.4946 6.88669 21.4041 6.91247 21.4041 6.30666C21.4041 6.15198 21.3395 6.02309 21.4687 6.02309C21.6238 6.02309 21.7919 6.24221 21.9728 6.52578C22.4123 7.19605 22.7742 7.69874 23.1232 7.91787C25.6436 9.5033 26.1735 10.5216 26.7551 11.9523C26.8844 12.2746 27.0136 12.8031 27.3885 13.0351C27.7116 13.2284 28.4096 13.4475 28.4096 13.7053" fill="white"/>
</svg>
