<svg width="6" height="10" viewBox="0 0 6 10" fill="none" xmlns="http://www.w3.org/2000/svg">
<path d="M3.78347 4.63997L0.183471 1.03997C0.0610221 0.917524 0.001838 0.774667 0.00591974 0.611401C0.0100015 0.448136 0.0732668 0.30528 0.195716 0.182831C0.318165 0.0603807 0.461022 -0.000843252 0.624287 -0.000843245C0.787553 -0.000843237 0.93041 0.0603808 1.05286 0.182831L4.82429 3.94201C4.92225 4.03997 4.99572 4.15018 5.0447 4.27263C5.09367 4.39507 5.11816 4.51752 5.11816 4.63997C5.11816 4.76242 5.09367 4.88487 5.0447 5.00732C4.99572 5.12977 4.92225 5.23997 4.82429 5.33793L1.05286 9.10936C0.930409 9.23181 0.785511 9.29099 0.618164 9.28691C0.450817 9.28283 0.305919 9.21956 0.18347 9.09712C0.0610214 8.97467 -0.000203093 8.83181 -0.000203079 8.66854C-0.000203064 8.50528 0.0610214 8.36242 0.18347 8.23997L3.78347 4.63997Z" fill="#0065BD"/>
</svg>
