<svg width="18" height="10" viewBox="0 0 18 10" fill="none" xmlns="http://www.w3.org/2000/svg">
<path d="M8.70166 2.50255L1.95166 9.25255C1.72207 9.48214 1.45421 9.59311 1.14809 9.58546C0.841964 9.57781 0.574107 9.45918 0.344515 9.22959C0.114924 9 0.00012764 8.73214 0.00012764 8.42602C0.00012764 8.1199 0.114924 7.85204 0.344515 7.62245L7.39298 0.55102C7.57666 0.367347 7.78329 0.229591 8.01288 0.137755C8.24247 0.045918 8.47207 -3.9091e-07 8.70166 -3.80874e-07C8.93125 -3.70838e-07 9.16084 0.045918 9.39043 0.137755C9.62002 0.229591 9.82666 0.367347 10.0103 0.55102L17.0818 7.62245C17.3114 7.85204 17.4223 8.12372 17.4147 8.4375C17.407 8.75128 17.2884 9.02296 17.0588 9.25255C16.8292 9.48214 16.5614 9.59694 16.2552 9.59694C15.9491 9.59694 15.6813 9.48214 15.4517 9.25255L8.70166 2.50255Z" fill="white"/>
</svg>
