<svg width="45" height="44" viewBox="0 0 45 44" fill="none" xmlns="http://www.w3.org/2000/svg">
<path d="M11.3205 16.602C13.6634 15.1248 13.9781 11.4139 12.0235 8.31339C10.0688 5.2129 6.58502 3.89695 4.24215 5.37414C1.89927 6.85133 1.58454 10.5623 3.53918 13.6628C5.49381 16.7632 8.97763 18.0792 11.3205 16.602Z" fill="#014CA9"/>
<path d="M27.1373 7.63279C27.514 3.98696 25.5861 0.800615 22.8311 0.5159C20.0761 0.231185 17.5374 2.95591 17.1607 6.60175C16.7839 10.2476 18.7119 13.4339 21.4668 13.7186C24.2218 14.0034 26.7605 11.2786 27.1373 7.63279Z" fill="#014CA9"/>
<path d="M41.279 13.4963C43.1115 10.3221 42.6526 6.6262 40.254 5.24129C37.8555 3.85639 34.4255 5.30691 32.593 8.48111C30.7605 11.6553 31.2193 15.3512 33.6179 16.7361C36.0165 18.121 39.4465 16.6705 41.279 13.4963Z" fill="#014CA9"/>
<path d="M22.6901 41.1695C22.6901 41.1695 24.0732 39.1588 25.9617 38.5253C27.8503 37.8919 31.7495 35.1257 32.2492 33.6206C32.7489 32.1154 33.5044 26.0717 29.4832 25.8218C25.462 25.5719 24.4509 26.1995 22.6901 29.3434C22.6901 29.3434 20.174 26.1007 18.6631 25.7695C17.1523 25.4382 13.1253 24.6886 11.8701 28.7158C10.6149 32.7431 13.2531 35.5093 15.2695 36.7703C17.2859 38.0314 21.1851 40.0421 21.1851 41.1753C21.1851 41.1753 18.7096 42.0586 17.1174 42.8083C15.5252 43.5579 10.4929 44.819 6.97147 40.4198C3.45002 36.0206 4.32747 25.1942 10.8706 21.0449C17.4138 16.8956 26.322 15.0999 34.2714 21.6725C40.8146 27.0828 40.4136 35.2071 38.6761 38.781C37.2234 41.768 33.7717 44.1914 29.367 43.5696C25.5782 43.0349 24.8402 41.1695 22.7018 41.1695H22.6901Z" fill="#014CA9"/>
</svg>
