<svg width="12" height="12" viewBox="0 0 12 12" fill="none" xmlns="http://www.w3.org/2000/svg">
<path d="M5.03125 6.34375H0.65625C0.470313 6.34375 0.31449 6.28082 0.188781 6.15497C0.0629272 6.02911 0 5.87322 0 5.68728C0 5.5012 0.0629272 5.34538 0.188781 5.21981C0.31449 5.0941 0.470313 5.03125 0.65625 5.03125H5.03125V0.65625C5.03125 0.470313 5.09418 0.31449 5.22003 0.188781C5.34589 0.0629272 5.50178 0 5.68772 0C5.8738 0 6.02962 0.0629272 6.15519 0.188781C6.2809 0.31449 6.34375 0.470313 6.34375 0.65625V5.03125H10.7188C10.9047 5.03125 11.0605 5.09418 11.1862 5.22003C11.3121 5.34589 11.375 5.50178 11.375 5.68772C11.375 5.8738 11.3121 6.02962 11.1862 6.15519C11.0605 6.2809 10.9047 6.34375 10.7188 6.34375H6.34375V10.7188C6.34375 10.9047 6.28082 11.0605 6.15497 11.1862C6.02911 11.3121 5.87322 11.375 5.68728 11.375C5.5012 11.375 5.34538 11.3121 5.21981 11.1862C5.0941 11.0605 5.03125 10.9047 5.03125 10.7188V6.34375Z" fill="#3D3D3D"/>
</svg>
