<svg width="22" height="25" viewBox="0 0 22 25" fill="none" xmlns="http://www.w3.org/2000/svg">
<path d="M4.7191 24.5417C4.44463 24.5417 4.2146 24.4488 4.02903 24.263C3.84368 24.0774 3.751 23.8474 3.751 23.5729V13.1172C2.5885 12.818 1.67271 12.2531 1.00363 11.4225C0.334542 10.592 0 9.62033 0 8.50756V0.96875C0 0.694271 0.0928925 0.464247 0.278677 0.278677C0.464462 0.0928925 0.694594 0 0.969073 0C1.24377 0 1.47379 0.0928925 1.65915 0.278677C1.84472 0.464247 1.9375 0.694271 1.9375 0.96875V7.53881H3.751V0.96875C3.751 0.694271 3.84378 0.464247 4.02935 0.278677C4.21514 0.0928925 4.44538 0 4.72007 0C4.99455 0 5.22458 0.0928925 5.41015 0.278677C5.5955 0.464247 5.68818 0.694271 5.68818 0.96875V7.53881H7.50168V0.96875C7.50168 0.694271 7.59457 0.464247 7.78035 0.278677C7.96614 0.0928925 8.19627 0 8.47075 0C8.74545 0 8.97547 0.0928925 9.16082 0.278677C9.34639 0.464247 9.43918 0.694271 9.43918 0.96875V8.50756C9.43918 9.62033 9.10464 10.592 8.43555 11.4225C7.76647 12.2531 6.85068 12.818 5.68818 13.1172V23.5729C5.68818 23.8474 5.59528 24.0774 5.4095 24.263C5.22393 24.4488 4.9938 24.5417 4.7191 24.5417ZM17.226 24.5417C16.9513 24.5417 16.7213 24.4488 16.5359 24.263C16.3503 24.0774 16.2576 23.8474 16.2576 23.5729V12.6609C15.0951 12.265 14.1794 11.502 13.5105 10.3718C12.8414 9.24155 12.5069 7.91975 12.5069 6.40634C12.5069 4.63095 12.969 3.11938 13.8932 1.87163C14.8174 0.623876 15.9284 0 17.2263 0C18.5277 0 19.6416 0.627212 20.5682 1.88164C21.495 3.13606 21.9583 4.65086 21.9583 6.42604C21.9583 7.94784 21.6217 9.27051 20.9486 10.394C20.2754 11.5178 19.3576 12.2717 18.1951 12.6558V23.5729C18.1951 23.8474 18.1022 24.0774 17.9164 24.263C17.7306 24.4488 17.5005 24.5417 17.226 24.5417Z" fill="#002180"/>
</svg>
