<svg width="33" height="33" viewBox="0 0 33 33" fill="none" xmlns="http://www.w3.org/2000/svg">
<path d="M17.99 16.2292L13.6205 20.5987C13.3842 20.8324 13.2661 21.1247 13.2661 21.4755C13.2661 21.826 13.3842 22.1283 13.6205 22.3826C13.8748 22.6474 14.1793 22.7771 14.5341 22.7717C14.8888 22.7662 15.1932 22.6366 15.4472 22.3826L20.5196 17.3101C20.8286 17.0012 20.983 16.6409 20.983 16.2292C20.983 15.8175 20.8286 15.4571 20.5196 15.1482L15.4211 10.0497C15.1669 9.79573 14.8668 9.67031 14.5208 9.67344C14.1749 9.67686 13.8748 9.81096 13.6205 10.0758C13.3842 10.33 13.2644 10.6301 13.2609 10.976C13.2578 11.322 13.3832 11.6221 13.6372 11.8763L17.99 16.2292ZM16.2322 32.4583C13.9874 32.4583 11.8775 32.0324 9.90235 31.1805C7.92724 30.3286 6.20922 29.1725 4.74831 27.7122C3.2874 26.2518 2.13072 24.5345 1.27826 22.5603C0.426087 20.586 0 18.4766 0 16.2322C0 13.9874 0.425944 11.8775 1.27783 9.90235C2.12972 7.92724 3.28584 6.20922 4.74618 4.74831C6.20652 3.2874 7.92382 2.13072 9.89808 1.27826C11.8723 0.426087 13.9817 0 16.2262 0C18.4709 0 20.5809 0.425944 22.556 1.27783C24.5311 2.12972 26.2491 3.28584 27.71 4.74618C29.1709 6.20652 30.3276 7.92382 31.1801 9.89808C32.0322 11.8723 32.4583 13.9817 32.4583 16.2262C32.4583 18.4709 32.0324 20.5809 31.1805 22.556C30.3286 24.5311 29.1725 26.2491 27.7122 27.71C26.2518 29.1709 24.5345 30.3276 22.5603 31.1801C20.586 32.0322 18.4766 32.4583 16.2322 32.4583ZM16.2292 29.8958C20.0444 29.8958 23.276 28.5719 25.924 25.924C28.5719 23.276 29.8958 20.0444 29.8958 16.2292C29.8958 12.4139 28.5719 9.18229 25.924 6.53438C23.276 3.88646 20.0444 2.5625 16.2292 2.5625C12.4139 2.5625 9.18229 3.88646 6.53438 6.53438C3.88646 9.18229 2.5625 12.4139 2.5625 16.2292C2.5625 20.0444 3.88646 23.276 6.53438 25.924C9.18229 28.5719 12.4139 29.8958 16.2292 29.8958Z" fill="white"/>
</svg>
