<svg width="37" height="34" viewBox="0 0 37 34" fill="none" xmlns="http://www.w3.org/2000/svg">
<path d="M3.16356 33.25C2.27952 33.25 1.53125 32.9438 0.91875 32.3313C0.30625 31.7188 0 30.9705 0 30.0864V10.1636C0 9.27952 0.30625 8.53125 0.91875 7.91875C1.53125 7.30625 2.27952 7 3.16356 7H8.50763L10.7962 4.51981C11.0855 4.20598 11.4342 3.95763 11.8422 3.77475C12.25 3.59158 12.6776 3.5 13.125 3.5H20.2261C20.5979 3.5 20.9096 3.62585 21.161 3.87756C21.4127 4.12927 21.5386 4.44106 21.5386 4.81294C21.5386 5.1851 21.4127 5.49675 21.161 5.74788C20.9096 5.99929 20.5979 6.125 20.2261 6.125H12.8896L9.67881 9.625H3.16356C3.00635 9.625 2.87729 9.67546 2.77638 9.77638C2.67546 9.87729 2.625 10.0064 2.625 10.1636V30.0864C2.625 30.2436 2.67546 30.3727 2.77638 30.4736C2.87729 30.5745 3.00635 30.625 3.16356 30.625H30.0864C30.2436 30.625 30.3727 30.5745 30.4736 30.4736C30.5745 30.3727 30.625 30.2436 30.625 30.0864V16.5239C30.625 16.1521 30.7509 15.8404 31.0026 15.589C31.2543 15.3373 31.5661 15.2114 31.9379 15.2114C32.3101 15.2114 32.6218 15.3373 32.8729 15.589C33.1243 15.8404 33.25 16.1521 33.25 16.5239V30.0864C33.25 30.9705 32.9438 31.7188 32.3313 32.3313C31.7188 32.9438 30.9705 33.25 30.0864 33.25H3.16356ZM30.625 6.125H28.4375C28.0656 6.125 27.7538 5.99915 27.5021 5.74744C27.2507 5.49573 27.125 5.18394 27.125 4.81206C27.125 4.4399 27.2507 4.12825 27.5021 3.87712C27.7538 3.62571 28.0656 3.5 28.4375 3.5H30.625V1.3125C30.625 0.940625 30.7509 0.628979 31.0026 0.377563C31.2543 0.125854 31.5661 0 31.9379 0C32.3101 0 32.6218 0.125854 32.8729 0.377563C33.1243 0.628979 33.25 0.940625 33.25 1.3125V3.5H35.4375C35.8094 3.5 36.121 3.62585 36.3724 3.87756C36.6241 4.12927 36.75 4.44106 36.75 4.81294C36.75 5.1851 36.6241 5.49675 36.3724 5.74788C36.121 5.99929 35.8094 6.125 35.4375 6.125H33.25V8.3125C33.25 8.68438 33.1241 8.99617 32.8724 9.24788C32.6207 9.49929 32.3089 9.625 31.9371 9.625C31.5649 9.625 31.2532 9.49929 31.0021 9.24788C30.7507 8.99617 30.625 8.68438 30.625 8.3125V6.125ZM16.625 27.3267C18.6331 27.3267 20.3354 26.6284 21.7319 25.2319C23.1284 23.8354 23.8267 22.1331 23.8267 20.125C23.8267 18.1169 23.1284 16.4146 21.7319 15.0181C20.3354 13.6216 18.6331 12.9233 16.625 12.9233C14.6169 12.9233 12.9146 13.6216 11.5181 15.0181C10.1216 16.4146 9.42331 18.1169 9.42331 20.125C9.42331 22.1331 10.1216 23.8354 11.5181 25.2319C12.9146 26.6284 14.6169 27.3267 16.625 27.3267ZM16.625 24.7021C15.3326 24.7021 14.2468 24.2623 13.3674 23.3826C12.4877 22.5032 12.0479 21.4174 12.0479 20.125C12.0479 18.8326 12.4877 17.7467 13.3674 16.8674C14.2468 15.9877 15.3326 15.5479 16.625 15.5479C17.9174 15.5479 19.0033 15.9877 19.8826 16.8674C20.7623 17.7467 21.2021 18.8326 21.2021 20.125C21.2021 21.4174 20.7623 22.5032 19.8826 23.3826C19.0033 24.2623 17.9174 24.7021 16.625 24.7021Z" fill="white"/>
</svg>
