<svg width="35" height="32" viewBox="0 0 35 32" fill="none" xmlns="http://www.w3.org/2000/svg">
<path d="M17.4167 6.33333C16.9681 6.33333 16.592 6.1816 16.2885 5.87813C15.9851 5.57465 15.8333 5.19861 15.8333 4.75V1.58333C15.8333 1.13472 15.9851 0.758681 16.2885 0.455208C16.592 0.151736 16.9681 0 17.4167 0C17.8653 0 18.2413 0.151736 18.5448 0.455208C18.8483 0.758681 19 1.13472 19 1.58333V4.75C19 5.19861 18.8483 5.57465 18.5448 5.87813C18.2413 6.1816 17.8653 6.33333 17.4167 6.33333ZM25.2542 9.57917C24.9639 9.28889 24.8187 8.91945 24.8187 8.47083C24.8187 8.02222 24.9639 7.65278 25.2542 7.3625L27.4708 5.10625C27.7875 4.78958 28.1635 4.63125 28.599 4.63125C29.0344 4.63125 29.4104 4.78958 29.7271 5.10625C30.0174 5.39653 30.1625 5.76597 30.1625 6.21458C30.1625 6.6632 30.0174 7.03264 29.7271 7.32292L27.4708 9.57917C27.1806 9.86945 26.8111 10.0146 26.3625 10.0146C25.9139 10.0146 25.5444 9.86945 25.2542 9.57917ZM30.0833 19C29.6347 19 29.2587 18.8483 28.9552 18.5448C28.6517 18.2413 28.5 17.8653 28.5 17.4167C28.5 16.9681 28.6517 16.592 28.9552 16.2885C29.2587 15.9851 29.6347 15.8333 30.0833 15.8333H33.25C33.6986 15.8333 34.0747 15.9851 34.3781 16.2885C34.6816 16.592 34.8333 16.9681 34.8333 17.4167C34.8333 17.8653 34.6816 18.2413 34.3781 18.5448C34.0747 18.8483 33.6986 19 33.25 19H30.0833ZM27.4708 29.7271L25.2542 27.4708C24.9639 27.1806 24.8187 26.8111 24.8187 26.3625C24.8187 25.9139 24.9639 25.5444 25.2542 25.2542C25.5444 24.9639 25.9139 24.8188 26.3625 24.8188C26.8111 24.8188 27.1806 24.9639 27.4708 25.2542L29.7271 27.4708C30.0437 27.7875 30.2021 28.1635 30.2021 28.599C30.2021 29.0344 30.0437 29.4104 29.7271 29.7271C29.4104 30.0438 29.0344 30.2021 28.599 30.2021C28.1635 30.2021 27.7875 30.0438 27.4708 29.7271ZM7.3625 9.57917L5.10625 7.32292C4.81597 7.03264 4.67083 6.6632 4.67083 6.21458C4.67083 5.76597 4.81597 5.39653 5.10625 5.10625C5.42292 4.78958 5.79896 4.63125 6.23437 4.63125C6.66979 4.63125 7.04583 4.78958 7.3625 5.10625L9.57917 7.3625C9.86944 7.65278 10.0146 8.02222 10.0146 8.47083C10.0146 8.91945 9.86944 9.28889 9.57917 9.57917C9.28889 9.86945 8.91944 10.0146 8.47083 10.0146C8.02222 10.0146 7.65278 9.86945 7.3625 9.57917ZM7.91667 28.5H15.0417C15.7014 28.5 16.2622 28.2691 16.724 27.8073C17.1858 27.3455 17.4167 26.7847 17.4167 26.125C17.4167 25.4653 17.1924 24.9045 16.7437 24.4427C16.2951 23.9809 15.741 23.75 15.0813 23.75H13.0625L12.2708 21.85C11.9014 20.9792 11.3208 20.2865 10.5292 19.7719C9.7375 19.2573 8.86667 19 7.91667 19C6.59722 19 5.47569 19.4618 4.55208 20.3854C3.62847 21.309 3.16667 22.4306 3.16667 23.75C3.16667 25.0694 3.62847 26.191 4.55208 27.1146C5.47569 28.0382 6.59722 28.5 7.91667 28.5ZM7.91667 31.6667C5.72639 31.6667 3.85937 30.8948 2.31562 29.351C0.771875 27.8073 0 25.9403 0 23.75C0 21.5597 0.771875 19.6927 2.31562 18.149C3.85937 16.6052 5.72639 15.8333 7.91667 15.8333C9.5 15.8333 10.9448 16.2622 12.251 17.1198C13.5573 17.9774 14.5271 19.1319 15.1604 20.5833C16.691 20.5833 17.9774 21.1507 19.0198 22.2854C20.0622 23.4201 20.5833 24.7792 20.5833 26.3625C20.5306 27.8667 19.9698 29.1267 18.901 30.1427C17.8323 31.1587 16.5458 31.6667 15.0417 31.6667H7.91667ZM20.5833 26.3625C20.4514 25.8347 20.3194 25.3201 20.1875 24.8188C20.0556 24.3174 19.9236 23.8028 19.7917 23.275C20.9792 22.7736 21.9358 21.9951 22.6615 20.9396C23.3872 19.884 23.75 18.7097 23.75 17.4167C23.75 15.675 23.1299 14.184 21.8896 12.9438C20.6493 11.7035 19.1583 11.0833 17.4167 11.0833C15.8333 11.0833 14.4479 11.5979 13.2604 12.6271C12.0729 13.6563 11.3736 14.9625 11.1625 16.5458C10.6347 16.4139 10.0937 16.2951 9.53958 16.1896C8.98542 16.084 8.44444 15.9653 7.91667 15.8333C8.28611 13.5111 9.37465 11.6111 11.1823 10.1333C12.9899 8.65556 15.0681 7.91667 17.4167 7.91667C20.0556 7.91667 22.2986 8.84028 24.1458 10.6875C25.9931 12.5347 26.9167 14.7778 26.9167 17.4167C26.9167 19.4486 26.3361 21.276 25.175 22.899C24.0139 24.5219 22.4833 25.6764 20.5833 26.3625Z" fill="white"/>
</svg>
