<svg width="20" height="24" viewBox="0 0 20 24" fill="none" xmlns="http://www.w3.org/2000/svg">
<path d="M4.37165 20.6667V21.8837C4.37165 22.2633 4.23871 22.5859 3.97284 22.8515C3.70698 23.1172 3.38406 23.25 3.00409 23.25C2.62434 23.25 2.30197 23.1172 2.03696 22.8515C1.77195 22.5859 1.63945 22.2633 1.63945 21.8837V19.7328C1.23537 19.4265 0.861111 18.993 0.516667 18.4324C0.172222 17.8718 0 17.2421 0 16.5433V4.52083C0 2.95749 0.777045 1.81318 2.33114 1.08791C3.88501 0.362635 6.33702 0 9.68718 0C13.1583 0 15.6407 0.348535 17.1343 1.0456C18.6281 1.74246 19.375 2.90087 19.375 4.52083V16.5433C19.375 17.2421 19.2028 17.8718 18.8583 18.4324C18.5139 18.993 18.1396 19.4265 17.7356 19.7328V21.8837C17.7356 22.2633 17.6026 22.5859 17.3367 22.8515C17.0707 23.1172 16.7477 23.25 16.368 23.25C15.988 23.25 15.6655 23.1172 15.4005 22.8515C15.1357 22.5859 15.0034 22.2633 15.0034 21.8837V20.6667H4.37165ZM1.9375 10.3333H17.4375V5.51445H1.9375V10.3333ZM5.16957 17.1892C5.63952 17.1892 6.038 17.0246 6.36501 16.6954C6.69223 16.3665 6.85584 15.967 6.85584 15.4971C6.85584 15.0271 6.69126 14.6287 6.3621 14.3017C6.03316 13.9744 5.63371 13.8108 5.16376 13.8108C4.69381 13.8108 4.29533 13.9754 3.96832 14.3046C3.6411 14.6335 3.47749 15.033 3.47749 15.5029C3.47749 15.9729 3.64207 16.3713 3.97123 16.6983C4.30017 17.0256 4.69962 17.1892 5.16957 17.1892ZM14.2112 17.1892C14.6812 17.1892 15.0797 17.0246 15.4067 16.6954C15.7339 16.3665 15.8975 15.967 15.8975 15.4971C15.8975 15.0271 15.7329 14.6287 15.4038 14.3017C15.0748 13.9744 14.6754 13.8108 14.2054 13.8108C13.7355 13.8108 13.337 13.9754 13.01 14.3046C12.6828 14.6335 12.5192 15.033 12.5192 15.5029C12.5192 15.9729 12.6837 16.3713 13.0129 16.6983C13.3418 17.0256 13.7413 17.1892 14.2112 17.1892ZM2.29529 3.57695H17.1595C16.8861 3.062 16.1938 2.65997 15.0828 2.37085C13.9715 2.08195 12.1863 1.9375 9.72722 1.9375C7.30793 1.9375 5.54265 2.08862 4.43139 2.39087C3.32012 2.69312 2.60809 3.08848 2.29529 3.57695ZM4.52083 18.7292H14.8542C15.5646 18.7292 16.1727 18.4762 16.6786 17.9703C17.1845 17.4644 17.4375 16.8562 17.4375 16.1458V12.2708H1.9375V16.1458C1.9375 16.8562 2.19045 17.4644 2.69635 17.9703C3.20226 18.4762 3.81042 18.7292 4.52083 18.7292Z" fill="white" fill-opacity="0.6"/>
</svg>
