<svg width="28" height="25" viewBox="0 0 28 25" fill="none" xmlns="http://www.w3.org/2000/svg">
<path d="M4.02386 24.4322C3.38643 24.4322 2.87557 24.1755 2.4913 23.662C2.10725 23.1488 1.98475 22.5668 2.12382 21.916C2.41036 20.6939 2.60497 19.4676 2.70766 18.237C2.81034 17.0067 2.87654 15.7681 2.90625 14.5212C1.99885 14.2097 1.28758 13.6586 0.772417 12.8679C0.257472 12.0772 0 11.1958 0 10.2239V9.59289C0 9.17223 0.120448 8.79259 0.361344 8.45396C0.602455 8.11533 0.922465 7.86571 1.32138 7.70512C3.4494 6.87888 5.44857 5.84016 7.31891 4.58897C9.18946 3.33799 10.9767 1.95645 12.6806 0.444334C12.8595 0.292132 13.0483 0.179971 13.247 0.107853C13.4457 0.0359503 13.6585 0 13.8854 0C14.1123 0 14.3251 0.0359503 14.5238 0.107853C14.7225 0.179971 14.9113 0.292132 15.0902 0.444334C16.7941 1.95645 18.5814 3.33799 20.4519 4.58897C22.3223 5.84016 24.3214 6.87888 26.4495 7.70512C26.8484 7.86571 27.1684 8.11533 27.4095 8.45396C27.6504 8.79259 27.7708 9.17223 27.7708 9.59289V10.2239C27.7708 11.1958 27.5134 12.0772 26.9984 12.8679C26.4833 13.6586 25.772 14.2097 24.8646 14.5212C24.8943 15.7681 24.9605 17.0067 25.0632 18.237C25.1659 19.4676 25.3605 20.6939 25.647 21.916C25.7861 22.5668 25.6636 23.1488 25.2795 23.662C24.8953 24.1755 24.3844 24.4322 23.747 24.4322H4.02386ZM4.61513 8.28637H23.1557C21.4533 7.45668 19.8349 6.51075 18.3007 5.44857C16.7664 4.38618 15.2946 3.224 13.8854 1.96204C12.4762 3.224 11.0045 4.38618 9.47018 5.44857C7.93589 6.51075 6.31754 7.45668 4.61513 8.28637ZM17.1146 12.8072C17.777 12.8072 18.3194 12.5505 18.7418 12.037C19.1639 11.5238 19.375 10.9194 19.375 10.2239H14.8542C14.8542 10.9194 15.0652 11.5238 15.4874 12.037C15.9098 12.5505 16.4522 12.8072 17.1146 12.8072ZM10.6563 12.8072C11.3187 12.8072 11.8611 12.5505 12.2834 12.037C12.7056 11.5238 12.9167 10.9194 12.9167 10.2239H8.39583C8.39583 10.9194 8.60691 11.5238 9.02907 12.037C9.45145 12.5505 9.99384 12.8072 10.6563 12.8072ZM4.19792 12.8072C4.86033 12.8072 5.40272 12.5505 5.82509 12.037C6.24725 11.5238 6.45833 10.9194 6.45833 10.2239H1.9375C1.9375 10.9194 2.14858 11.5238 2.57074 12.037C2.99311 12.5505 3.53551 12.8072 4.19792 12.8072ZM3.96929 22.4947H8.13266C8.34298 21.1202 8.50401 19.7544 8.61574 18.3975C8.72747 17.0404 8.81154 15.6705 8.86794 14.2878C8.56978 14.1552 8.30025 13.9862 8.05935 13.7808C7.81824 13.5754 7.60749 13.337 7.42708 13.0655C7.13388 13.4911 6.76252 13.8468 6.31302 14.1324C5.86331 14.4181 5.37355 14.6023 4.84375 14.685C4.80069 16.0115 4.72115 17.3239 4.60512 18.6223C4.4893 19.9206 4.27735 21.2114 3.96929 22.4947ZM10.0899 22.4947H17.681C17.484 21.203 17.3329 19.9134 17.2276 18.6258C17.1226 17.3383 17.0418 16.0379 16.9854 14.7247C16.348 14.7232 15.7551 14.57 15.2068 14.2652C14.6587 13.9606 14.2182 13.5508 13.8854 13.0358C13.5526 13.5508 13.1121 13.9606 12.564 14.2652C12.0157 14.57 11.4229 14.7232 10.7854 14.7247C10.729 16.0379 10.6483 17.3383 10.5432 18.6258C10.438 19.9134 10.2868 21.203 10.0899 22.4947ZM19.6382 22.4947H23.8015C23.4935 21.2114 23.2815 19.9206 23.1657 18.6223C23.0497 17.3239 22.9701 16.0115 22.9271 14.685C22.3973 14.6023 21.9034 14.4193 21.4455 14.136C20.9876 13.8529 20.6204 13.4878 20.3438 13.0407C20.1715 13.3205 19.965 13.5631 19.7241 13.7685C19.483 13.9739 19.2092 14.147 18.9029 14.2878C18.9593 15.6705 19.0467 17.0404 19.1651 18.3975C19.2835 19.7544 19.4412 21.1202 19.6382 22.4947ZM23.5729 12.8072C24.2353 12.8072 24.7777 12.5505 25.2001 12.037C25.6223 11.5238 25.8333 10.9194 25.8333 10.2239H21.3125C21.3125 10.9194 21.5236 11.5238 21.9457 12.037C22.3681 12.5505 22.9105 12.8072 23.5729 12.8072Z" fill="#002180"/>
</svg>
