<svg width="25" height="17" viewBox="0 0 25 17" fill="none" xmlns="http://www.w3.org/2000/svg">
<path d="M0 15.1771V9.04167C0 8.55988 0.114313 8.09251 0.342938 7.63956C0.571347 7.18662 0.88759 6.8144 1.29167 6.52292V3.22917C1.29167 2.32672 1.60425 1.56292 2.22942 0.937749C2.85458 0.312583 3.61839 0 4.52083 0H10.0104C10.4808 0 10.9022 0.0914931 11.2746 0.274479C11.6473 0.457465 11.9793 0.710417 12.2708 1.03333C12.5623 0.710417 12.8944 0.457465 13.267 0.274479C13.6395 0.0914931 14.0609 0 14.5312 0H20.0208C20.9233 0 21.6871 0.312583 22.3122 0.937749C22.9374 1.56292 23.25 2.32672 23.25 3.22917V6.52292C23.6541 6.8144 23.9703 7.18662 24.1987 7.63956C24.4274 8.09251 24.5417 8.55988 24.5417 9.04167V15.1771C24.5417 15.4516 24.4488 15.6816 24.263 15.8672C24.0772 16.0529 23.8471 16.1458 23.5726 16.1458C23.2979 16.1458 23.0679 16.0529 22.8825 15.8672C22.697 15.6816 22.6042 15.4516 22.6042 15.1771V13.5625H1.9375V15.1771C1.9375 15.4516 1.84461 15.6816 1.65882 15.8672C1.47304 16.0529 1.24291 16.1458 0.968427 16.1458C0.693733 16.1458 0.463708 16.0529 0.278354 15.8672C0.0927848 15.6816 0 15.4516 0 15.1771ZM13.2396 5.8125H21.3125V3.22917C21.3125 2.86319 21.1887 2.55642 20.9411 2.30885C20.6936 2.06128 20.3868 1.9375 20.0208 1.9375H14.5312C14.1653 1.9375 13.8585 2.06128 13.6109 2.30885C13.3634 2.55642 13.2396 2.86319 13.2396 3.22917V5.8125ZM3.22917 5.8125H11.3021V3.22917C11.3021 2.86319 11.1783 2.55642 10.9307 2.30885C10.6832 2.06128 10.3764 1.9375 10.0104 1.9375H4.52083C4.15486 1.9375 3.84809 2.06128 3.60052 2.30885C3.35295 2.55642 3.22917 2.86319 3.22917 3.22917V5.8125ZM1.9375 11.625H22.6042V9.04167C22.6042 8.67569 22.4804 8.36892 22.2328 8.12135C21.9852 7.87379 21.6785 7.75 21.3125 7.75H3.22917C2.86319 7.75 2.55642 7.87379 2.30885 8.12135C2.06128 8.36892 1.9375 8.67569 1.9375 9.04167V11.625Z" fill="#002180"/>
</svg>
