<svg width="168" height="43" viewBox="0 0 168 43" fill="none" xmlns="http://www.w3.org/2000/svg">
<g clip-path="url(#clip0_35_11)">
<path d="M140.955 10.9338C140.955 11.3158 141.012 11.7122 141.16 12.0798C141.819 13.7447 143.497 14.7682 145.628 13.8961C146.138 13.6871 160.248 7.89943 160.248 7.89943C160.248 7.89943 154.69 22.2424 154.478 22.7757C153.671 24.8371 154.641 26.6894 156.29 27.3165C156.658 27.4534 157.041 27.5183 157.416 27.5183C158.768 27.5183 159.958 26.7038 160.545 25.0821C160.63 24.8371 167.583 5.41284 167.739 4.94435C167.831 4.67047 167.986 4.01458 167.993 3.56772C167.993 2.60191 167.646 1.70097 166.974 1.01626C166.308 0.34596 165.43 0 164.496 0C164.043 0 163.675 0.0792826 163.115 0.266678C162.783 0.37479 144.87 7.16426 143.334 7.74086C141.798 8.32467 140.955 9.56437 140.955 10.941" fill="#ED1C24"/>
<path d="M85.2642 35.2231V32.996C87.6006 32.3761 89.3069 30.5022 89.3069 28.2822C89.3069 26.8768 88.6201 25.6155 87.5298 24.7145H89.9158V22.1775H85.3634V19.7197H81.8163V22.1775H77.1577V24.7145H79.6498C78.5595 25.6155 77.8728 26.8768 77.8728 28.2822C77.8728 30.4373 79.487 32.2608 81.7243 32.9311V35.2159H76.4072V37.825H88.5281C89.5688 37.825 90.7158 37.6664 90.7229 37.6592V35.115C90.7229 35.115 89.8733 35.2159 88.8184 35.2159H85.2713L85.2642 35.2231ZM83.5863 25.5146C84.889 25.5146 85.9439 26.7254 85.9439 28.2174C85.9439 29.7093 84.8819 30.9202 83.5863 30.9202C82.2907 30.9202 81.2287 29.7093 81.2287 28.2174C81.2287 26.7254 82.2907 25.5146 83.5863 25.5146Z" fill="#454B52"/>
<path d="M95.091 20.2964H91.5439V41.7892H95.091V29.4355H98.5743V26.8336H95.091V20.2964Z" fill="#454B52"/>
<path d="M138.073 31.7492C139.114 31.7492 140.254 31.5907 140.268 31.5907V29.0464C140.268 29.0464 139.418 29.1473 138.356 29.1473H132.855C132.034 29.1329 131.623 28.7653 131.609 28.0229V23.5759H138.569V20.9668H128.02V28.6716C128.02 30.596 129.705 31.7492 131.326 31.7492H138.066H138.073Z" fill="#454B52"/>
<path d="M46.5929 37.9692H37.5659V35.3313C40.5112 34.6754 42.6989 32.4266 42.6989 29.7599C42.6989 28.3256 42.0688 27.0138 41.028 26.0048H44.7945V23.3956H37.573V20.9307H34.026V23.3956H26.8044V26.0048H30.5709C29.5302 27.0138 28.9001 28.3256 28.9001 29.7599C28.9001 32.4266 31.0807 34.6754 34.026 35.3313V37.9692H24.999V40.5783H46.5929V37.9692ZM32.5462 29.6806C32.5462 27.9003 34.0047 26.4516 35.7959 26.4516C37.5872 26.4516 39.0456 27.9003 39.0456 29.6806C39.0456 31.4608 37.5872 32.9095 35.7959 32.9095C34.0047 32.9095 32.5462 31.4608 32.5462 29.6806Z" fill="#454B52"/>
<path d="M6.69037 43.0001H17.6714V34.8268C17.6714 34.3799 17.3174 34.0195 16.8855 34.0195H3.37695V39.9225C3.37695 41.7027 4.7717 42.9929 6.68329 42.9929M6.92401 36.6359H14.1243V40.3982H8.17008C7.30632 40.3982 6.93817 40.0522 6.92401 39.2882V36.6359Z" fill="#454B52"/>
<path d="M21.5938 29.3779H17.1759C17.3883 28.5635 17.9123 26.0408 17.9123 21.6299V21.5073H3.18597V24.1164H14.1953C14.1953 24.2894 14.1953 24.5056 14.1953 24.7147C14.1953 27.1436 14.0749 28.7365 14.0112 29.3779H0V31.987H21.5938V29.3779Z" fill="#454B52"/>
<path d="M58.0622 38.0629V34.5889H54.4727V38.7116C54.4727 40.636 56.1577 41.7892 57.779 41.7892H69.1777V39.1873H59.3083C58.487 39.1728 58.0763 38.8053 58.0622 38.0629Z" fill="#454B52"/>
<path d="M51.3369 33.0394H60.7886V37.09H64.3357V33.0394H72.9378V30.4375H51.3369V33.0394Z" fill="#454B52"/>
<path d="M58.1337 28.8589H69.1147V20.2964H54.8203V25.7885C54.8203 27.5688 56.2151 28.8589 58.1337 28.8589ZM58.3674 22.9055H65.5677V26.257H59.6134C58.7497 26.257 58.3815 25.911 58.3674 25.147V22.9055Z" fill="#454B52"/>
<path d="M134.71 38.0702V33.6592H131.163V38.7189C131.163 40.4991 132.558 41.7892 134.477 41.7892H145.401V39.1873H135.956C135.092 39.1873 134.724 38.8414 134.71 38.0702Z" fill="#454B52"/>
<path d="M145.351 20.2817H141.882V33.976H145.351V27.3019H148.841V24.6927H145.351V20.2817Z" fill="#454B52"/>
<path d="M118.752 26.7976H117.378V20.2964H114.086V41.7892H117.378V29.4643H118.752V41.7892H122.037V20.2964H118.752V26.7976Z" fill="#454B52"/>
<path d="M109.074 23.6409H112.762V21.0317H102.319V23.6409H105.838L101.923 35.3819H105.293L107.424 28.751C109.59 31.1367 110.107 35.3819 110.107 35.3819H113.116C113.116 35.3819 112.96 29.7961 108.557 25.2193L109.067 23.6336L109.074 23.6409Z" fill="#454B52"/>
</g>
<defs>
<clipPath id="clip0_35_11">
<rect width="168" height="43" fill="white"/>
</clipPath>
</defs>
</svg>
