<svg width="111" height="29" viewBox="0 0 111 29" fill="none" xmlns="http://www.w3.org/2000/svg">
<g clip-path="url(#clip0_35_64)">
<path d="M55.3116 15.1162V18.2222H51.3782C53.7321 20.2122 55.2019 22.6991 52.933 25.4717C49.188 30.0459 37.777 30.0148 33.4772 26.2938C31.5126 24.5938 30.8274 22.1545 32.5456 19.9885L34.4026 18.2222H30.0552V15.1162H55.3116ZM41.1908 19.1106C35.3611 19.7131 34.2535 24.2624 40.3544 25.4158C42.5985 25.8403 48.8754 25.6871 49.2977 22.6577C49.778 19.212 43.4825 18.8745 41.1908 19.1106Z" fill="#2E008B"/>
<path d="M106.446 7.24698V2.27733H111V15.4262L110.69 15.7368H106.446V10.353H102.616C101.579 13.0553 99.1875 14.9044 96.3555 15.48C92.6643 16.2317 86.5096 14.4613 85.7933 10.1998C84.2572 1.08668 99.5995 -0.818353 102.51 7.14552L106.446 7.24698ZM93.3475 5.22599C90.3374 5.73124 89.1098 9.73181 91.5547 11.6824C95.19 14.5834 100.285 10.1025 97.3036 6.5533C96.3928 5.46826 94.7242 4.99407 93.3475 5.22599Z" fill="#2E008B"/>
<path d="M45.1677 0V2.48483H54.8976V5.59086H51.7923C53.5416 7.9618 53.3802 10.1195 51.0636 12.0059C47.213 15.1367 38.2242 15.0808 34.4213 11.8899C32.997 10.6951 32.1813 8.92674 32.91 7.09832C33.1522 6.49161 33.6801 6.19343 33.7816 5.59086H30.6763V2.48483H40.6132V0H45.1677ZM41.1887 5.64884C39.6092 5.84141 36.6881 6.86433 37.1829 8.90603C38.0213 12.3662 48.3413 12.1094 48.4945 8.58922C48.6208 5.67576 43.1865 5.40657 41.1887 5.64884Z" fill="#2E008B"/>
<path d="M93.8171 17.1865V19.2572H106.445V17.1865H111V27.1258H89.9873C89.9024 27.1258 89.2627 26.3017 89.2627 26.194V17.1865H93.8171ZM106.445 24.0198L106.412 22.7049L106.135 22.3632H93.8171V24.0198H106.445Z" fill="#2E008B"/>
<path d="M18.462 2.48438V5.59041H12.1479C11.9347 5.74364 11.9264 5.77263 11.9222 6.01283C11.8788 9.66967 14.4189 13.8897 18.0459 14.9106C18.1308 15.2233 17.9652 15.2522 17.843 15.4283C17.6174 15.7534 16.1599 17.3809 15.8784 17.3871C14.3858 17.4161 9.81271 13.3762 9.556 11.5954C8.18346 13.4632 6.48176 15.157 4.44675 16.3166C3.89193 16.6334 2.34342 17.5693 1.79275 17.2049C1.55882 17.0517 0.12831 15.422 0.0392918 15.2129C-0.107692 14.8671 0.175925 14.9354 0.300137 14.863C3.32884 13.0842 5.40318 12.1234 6.51281 8.44382C6.7426 7.67973 7.19183 6.22611 6.76537 5.59041H0.451262V2.48438H18.462Z" fill="#2E008B"/>
<path d="M72.5979 2.69152C74.6619 3.13465 72.9705 8.74415 72.5482 10.0963C70.8051 15.6851 67.2671 21.0606 62.5471 24.5435L58.9594 22.7896L58.8311 22.3651C63.2965 19.3523 67.1243 13.9478 68.4575 8.69652C68.5776 8.22648 69.2649 5.58842 68.6624 5.58842H59.243V2.68945H72.5958L72.5979 2.69152Z" fill="#2E008B"/>
<path d="M81.3962 2.07031H77.0488V27.3327H81.3962V2.07031Z" fill="#2E008B"/>
<path d="M7.90405 18.8438V24.4346H25.0867V27.5406H4.07418C4.02242 27.5406 3.34961 26.8677 3.34961 26.8159V18.8438H7.90405Z" fill="#2E008B"/>
<path d="M25.0867 2.07031H20.5322V19.6712H25.0867V2.07031Z" fill="#2E008B"/>
</g>
<defs>
<clipPath id="clip0_35_64">
<rect width="111" height="29" fill="white"/>
</clipPath>
</defs>
</svg>
